<?xml version="1.0" encoding="UTF-8"?>
<svg xmlns="http://www.w3.org/2000/svg" viewBox="0 0 800 800">
  <defs>
    <linearGradient id="goldGradient" x1="0%" y1="0%" x2="100%" y2="100%">
      <stop offset="0%" style="stop-color:#FFD700"/>
      <stop offset="100%" style="stop-color:#DAA520"/>
    </linearGradient>
  </defs>
  
  <!-- Shield Background -->
  <path d="M400 100C550 100 650 200 650 400C650 600 550 700 400 700C250 700 150 600 150 400C150 200 250 100 400 100Z" 
        fill="url(#goldGradient)" stroke="#1A1A1A" stroke-width="10"/>
  
  <!-- Decorative Top -->
  <path d="M380 100C380 80 420 80 420 100C440 80 460 90 450 110C470 90 490 100 480 120C500 100 520 110 500 130C520 110 540 120 510 140L400 160L290 140C260 120 280 110 300 130C280 110 300 100 320 120C310 100 330 90 350 110C340 90 360 80 380 100Z" 
        fill="url(#goldGradient)" stroke="#1A1A1A" stroke-width="5"/>
  
  <!-- Laurel Left -->
  <path d="M200 300Q180 400 250 500Q200 400 220 300Z" fill="url(#goldGradient)" stroke="#1A1A1A" stroke-width="5"/>
  <path d="M240 280Q220 380 290 480Q240 380 260 280Z" fill="url(#goldGradient)" stroke="#1A1A1A" stroke-width="5"/>
  
  <!-- Laurel Right -->
  <path d="M600 300Q620 400 550 500Q600 400 580 300Z" fill="url(#goldGradient)" stroke="#1A1A1A" stroke-width="5"/>
  <path d="M560 280Q580 380 510 480Q560 380 540 280Z" fill="url(#goldGradient)" stroke="#1A1A1A" stroke-width="5"/>
  
  <!-- Scales of Justice -->
  <g transform="translate(400 400) scale(0.8)">
    <!-- Center Post -->
    <rect x="-10" y="-150" width="20" height="300" fill="url(#goldGradient)" stroke="#1A1A1A" stroke-width="5"/>
    
    <!-- Cross Bar -->
    <rect x="-100" y="-150" width="200" height="20" fill="url(#goldGradient)" stroke="#1A1A1A" stroke-width="5"/>
    
    <!-- Scales -->
    <path d="M-100 -150 L-160 -50 L-40 -50 Z" fill="url(#goldGradient)" stroke="#1A1A1A" stroke-width="5"/>
    <path d="M100 -150 L160 -50 L40 -50 Z" fill="url(#goldGradient)" stroke="#1A1A1A" stroke-width="5"/>
  </g>
</svg> 